HIERARCHY
ROOT Hips
{
 OFFSET 0.000000 0.000000 0.000000
 CHANNELS 6 Xposition Yposition Zposition Yrotation Xrotation Zrotation
 JOINT Chest
 {
  OFFSET 0.000000 10.383400 0.001500
  CHANNELS 3 Yrotation Xrotation Zrotation
  JOINT Chest2
  {
   OFFSET 0.000000 10.418200 -0.003100
   CHANNELS 3 Yrotation Xrotation Zrotation
   JOINT Chest3
   {
    OFFSET 0.000000 10.375100 0.000000
    CHANNELS 3 Yrotation Xrotation Zrotation
    JOINT Chest4
    {
     OFFSET 0.000000 10.364600 0.000000
     CHANNELS 3 Yrotation Xrotation Zrotation
     JOINT Neck
     {
      OFFSET 0.000000 15.642200 0.000000
      CHANNELS 3 Yrotation Xrotation Zrotation
      JOINT Head
      {
       OFFSET 0.000000 9.697300 -0.006500
       CHANNELS 3 Yrotation Xrotation Zrotation
       End Site
       {
        OFFSET 0.000000 18.492200 -0.003400
       }
      }
     }
     JOINT RightCollar
     {
      OFFSET -3.166800 10.349300 0.000000
      CHANNELS 3 Yrotation Xrotation Zrotation
      JOINT RightShoulder
      {
       OFFSET -14.729700 0.000000 0.000000
       CHANNELS 3 Yrotation Xrotation Zrotation
       JOINT RightElbow
       {
        OFFSET 0.000000 -32.224300 0.000000
        CHANNELS 3 Yrotation Xrotation Zrotation
        JOINT RightWrist
        {
         OFFSET 0.000000 -26.084100 0.000000
         CHANNELS 3 Yrotation Xrotation Zrotation
         End Site
         {
          OFFSET 0.000000 -19.319400 0.000000
         }
        }
       }
      }
     }
     JOINT LeftCollar
     {
      OFFSET 3.166800 10.349300 0.000000
      CHANNELS 3 Yrotation Xrotation Zrotation
      JOINT LeftShoulder
      {
       OFFSET 14.729700 0.000000 0.000000
       CHANNELS 3 Yrotation Xrotation Zrotation
       JOINT LeftElbow
       {
        OFFSET 0.000000 -32.224300 0.000000
        CHANNELS 3 Yrotation Xrotation Zrotation
        JOINT LeftWrist
        {
         OFFSET 0.000000 -26.084100 0.000000
         CHANNELS 3 Yrotation Xrotation Zrotation
         End Site
         {
          OFFSET 0.000000 -19.319400 0.000000
         }
        }
       }
      }
     }
    }
   }
  }
 }
 JOINT RightHip
 {
  OFFSET -8.428900 -0.007500 -0.000800
  CHANNELS 3 Yrotation Xrotation Zrotation
  JOINT RightKnee
  {
   OFFSET 0.000000 -43.834600 0.000700
   CHANNELS 3 Yrotation Xrotation Zrotation
   JOINT RightAnkle
   {
    OFFSET 0.000000 -42.757000 0.001200
    CHANNELS 3 Yrotation Xrotation Zrotation
    JOINT RightToe
    {
     OFFSET 0.000000 -6.946900 15.649300
     CHANNELS 3 Yrotation Xrotation Zrotation
     End Site
     {
      OFFSET 0.000000 -1.580800 6.825800
     }
    }
   }
  }
 }
 JOINT LeftHip
 {
  OFFSET 8.428900 -0.007500 -0.000800
  CHANNELS 3 Yrotation Xrotation Zrotation
  JOINT LeftKnee
  {
   OFFSET 0.000000 -43.834600 0.000700
   CHANNELS 3 Yrotation Xrotation Zrotation
   JOINT LeftAnkle
   {
    OFFSET 0.000000 -42.757000 0.001200
    CHANNELS 3 Yrotation Xrotation Zrotation
    JOINT LeftToe
    {
     OFFSET 0.000000 -6.946900 15.649300
     CHANNELS 3 Yrotation Xrotation Zrotation
     End Site
     {
      OFFSET 0.000000 -1.580800 6.825800
     }
    }
   }
  }
 }
}
MOTION
Frames: 8
Frame Time: 0.008333
129.829116 126.794223 4.424889 -16.189483 -25.507904 -0.483689 -1.000395 21.199783 2.075401 -0.175086 2.811408 0.293302 -0.278326 4.585584 0.474512 -0.896526 18.069456 1.784848 2.743062 10.617970 -1.946423 6.106164 -15.933436 -4.951165 -1.915405 -9.339708 -7.433214 -19.790412 -27.674912 -25.555225 -78.855939 -11.353046 55.961752 -14.955821 -10.361544 10.526018 -3.072295 -10.072902 -0.093514 30.406300 -25.689311 19.496594 74.585161 -14.695808 -65.892567 22.254240 -14.601431 -11.694414 -4.848586 -44.014447 2.836324 -20.178704 71.742573 -21.060488 -1.035472 0.197826 3.670739 -0.002178 -0.005871 -0.000967 -4.144036 -36.506587 -11.407862 0.679886 63.938116 -0.124361 -14.152536 2.166479 -1.282293 -0.000896 0.000955 -0.000398
129.830990 126.795603 4.421875 -16.182125 -25.527857 -0.490414 -0.997232 21.174246 2.074439 -0.176817 2.818166 0.295136 -0.275108 4.561182 0.471213 -0.894209 18.051438 1.784237 2.637601 10.653000 -1.900740 5.931756 -15.854010 -4.837253 -1.925263 -9.284617 -7.425478 -19.824503 -27.708643 -25.501391 -78.879299 -11.338290 56.002229 -14.958498 -10.377282 10.526859 -3.080509 -10.002783 -0.090162 30.445755 -25.720397 19.430182 74.588164 -14.657850 -65.906998 22.284087 -14.616474 -11.697828 -4.855346 -43.995170 2.838930 -20.168402 71.739317 -21.053655 -1.042034 0.209181 3.675249 -0.001535 -0.006124 -0.000681 -4.150140 -36.487324 -11.407891 0.682295 63.932602 -0.116806 -14.159866 2.176675 -1.285780 -0.000916 0.001464 -0.000407
129.833251 126.796640 4.418104 -16.176180 -25.543994 -0.496327 -0.993339 21.143023 2.072529 -0.182916 2.852095 0.301369 -0.272408 4.541876 0.468244 -0.890419 17.999985 1.777110 2.534509 10.696910 -1.855273 5.709938 -15.782656 -4.700984 -1.934631 -9.273411 -7.418787 -19.843664 -27.699887 -25.461813 -78.904144 -11.320735 56.044172 -14.959746 -10.390589 10.526522 -3.071577 -9.959619 -0.099749 30.429470 -25.712040 19.430901 74.619830 -14.599734 -65.935020 22.304459 -14.628832 -11.718079 -4.846043 -43.982692 2.835356 -20.177153 71.737392 -21.057023 -1.055116 0.226301 3.686661 0.000355 -0.005681 0.000158 -4.154909 -36.472258 -11.407769 0.685770 63.928313 -0.108401 -14.164434 2.186691 -1.288447 -0.001628 0.002011 -0.000723
129.836416 126.796889 4.412793 -16.172090 -25.550877 -0.499797 -0.990782 21.101489 2.067992 -0.179969 2.845515 0.299794 -0.276417 4.563444 0.472545 -0.891392 17.951109 1.770835 2.417080 10.739700 -1.807066 5.459446 -15.714232 -4.553169 -1.944558 -9.269881 -7.411686 -19.853550 -27.692099 -25.424084 -78.928049 -11.303737 56.081860 -14.956700 -10.399813 10.529470 -3.056725 -9.923054 -0.112627 30.423572 -25.721951 19.382293 74.662312 -14.560431 -65.978622 22.233319 -14.622380 -11.692119 -4.838247 -43.976811 2.830788 -20.182991 71.734082 -21.057056 -1.060523 0.232955 3.690643 0.001961 -0.003331 0.000871 -4.156971 -36.465696 -11.414524 0.702453 63.919190 -0.077932 -14.164978 2.198448 -1.301274 -0.000307 0.002739 -0.000136
129.838480 126.798460 4.410067 -16.162079 -25.575927 -0.508630 -0.996260 21.077442 2.065460 -0.174163 2.784912 0.290817 -0.277587 4.608689 0.479010 -0.899733 17.936022 1.770942 2.285656 10.781143 -1.757259 5.181516 -15.648925 -4.396490 -1.948552 -9.256269 -7.409181 -19.866593 -27.703808 -25.377223 -78.950907 -11.292210 56.110850 -14.898923 -10.387228 10.489560 -2.999377 -9.947652 -0.153603 30.355225 -25.684354 19.386926 74.682214 -14.574669 -65.996733 22.181568 -14.607755 -11.661151 -4.835399 -43.950303 2.827703 -20.193568 71.728844 -21.059379 -1.065012 0.238126 3.691171 0.004726 -0.003514 0.002098 -4.168462 -36.441826 -11.411184 0.704749 63.915521 -0.072150 -14.161990 2.208530 -1.306046 -0.000616 0.002813 -0.000274
129.838426 126.802110 4.411269 -16.147017 -25.628324 -0.526032 -1.005904 21.080978 2.068659 -0.174803 2.779143 0.290315 -0.278263 4.535725 0.469790 -0.904256 17.984869 1.777101 2.142762 10.821964 -1.704465 4.880503 -15.585053 -4.229429 -1.947550 -9.245745 -7.410675 -19.862687 -27.677162 -25.361681 -79.013546 -11.266239 56.170555 -14.916901 -10.392801 10.527033 -2.974966 -9.908322 -0.167960 30.330818 -25.668927 19.388510 74.717871 -14.574144 -66.027406 22.154696 -14.590563 -11.642546 -4.842221 -43.893475 2.832183 -20.210662 71.718849 -21.073734 -1.064763 0.251443 3.697713 0.003679 -0.007182 0.001633 -4.191481 -36.388008 -11.397683 0.702927 63.912084 -0.073564 -14.161611 2.213718 -1.310411 -0.000583 0.001916 -0.000259
129.840756 126.803623 4.408782 -16.133768 -25.655007 -0.537013 -1.015912 21.083436 2.069873 -0.175204 2.748942 0.284657 -0.278661 4.558486 0.474642 -0.914237 17.936824 1.769171 1.991522 10.862873 -1.647384 4.561779 -15.521106 -4.050579 -1.941858 -9.218881 -7.410214 -19.899813 -27.733512 -25.274513 -79.012610 -11.282715 56.173659 -14.935619 -10.395491 10.570249 -2.961703 -9.841401 -0.169160 30.331283 -25.672053 19.366091 74.758059 -14.582809 -66.056529 22.140294 -14.563447 -11.641756 -4.846747 -43.864084 2.830878 -20.238467 71.711664 -21.095549 -1.061774 0.258044 3.700246 0.003019 -0.006271 0.001340 -4.207117 -36.360188 -11.394657 0.708122 63.903142 -0.062241 -14.154577 2.222424 -1.318651 0.000388 0.001720 0.000172
129.844340 126.804115 4.404755 -16.124816 -25.669878 -0.543267 -1.022257 21.074266 2.067658 -0.178353 2.720148 0.278274 -0.276275 4.579459 0.480003 -0.930408 17.890681 1.759568 1.835740 10.903062 -1.586761 4.233094 -15.458176 -3.863163 -1.929067 -9.158176 -7.405487 -19.952086 -27.827145 -25.168326 -79.009884 -11.304861 56.177231 -14.929950 -10.391544 10.590068 -2.930490 -9.826261 -0.182875 30.310135 -25.652474 19.349493 74.755108 -14.628152 -66.042843 22.179609 -14.565659 -11.727431 -4.851267 -43.848903 2.829753 -20.250181 71.708207 -21.103462 -1.068755 0.267767 3.703100 0.002069 -0.003447 0.000918 -4.221521 -36.346892 -11.394238 0.715456 63.896572 -0.060796 -14.112608 2.238267 -1.313905 0.001760 0.002446 0.000781
